<?xml version="1.0" encoding="utf-8"?>
<!-- Generator: Adobe Illustrator 16.2.1, SVG Export Plug-In . SVG Version: 6.00 Build 0)  -->
<!DOCTYPE svg PUBLIC "-//W3C//DTD SVG 1.1//EN" "http://www.w3.org/Graphics/SVG/1.1/DTD/svg11.dtd">
<svg version="1.1" id="Layer_1" xmlns="http://www.w3.org/2000/svg" xmlns:xlink="http://www.w3.org/1999/xlink" x="0px" y="0px"
	 width="100px" height="500px" viewBox="0 0 100 500" enable-background="new 0 0 100 500" xml:space="preserve">
<g opacity="0.08">
	<g>
		<path fill="#333333" d="M15.86,49.867C5.759,49.867,2,41.879,2,33.42C2,20.734,6.934,9.225,23.378,1l3.995,6.578
			c-10.572,6.107-14.331,12.217-14.566,20.908c1.88-0.939,3.759-1.408,5.638-1.408c6.344,0,10.337,4.699,10.337,10.807
			C28.781,44.934,23.848,49.867,15.86,49.867z M49.077,49.867c-10.101,0-13.858-7.988-13.858-16.447
			c0-12.686,4.933-24.195,21.377-32.42l3.994,6.578c-10.572,6.107-14.331,12.217-14.565,20.908c1.88-0.939,3.759-1.408,5.64-1.408
			C58.007,27.078,62,31.777,62,37.885C62,44.934,57.066,49.867,49.077,49.867z"/>
	</g>
</g>
<polyline fill="none" stroke="#D6D7D8" stroke-miterlimit="10" points="56.604,135 43.396,100.983 56.604,65 "/>
<g>
	<path fill="#555555" d="M99,6.568c0,2.485-2.014,4.499-4.498,4.499c-0.889,0-1.709-0.25-2.402-0.694l-3.389,3.402
		c-0.193,0.194-0.457,0.292-0.707,0.292c-0.264,0-0.514-0.097-0.709-0.292c-0.389-0.389-0.389-1.028,0-1.417l3.402-3.388
		c-0.445-0.694-0.695-1.513-0.695-2.402c0-2.486,2.014-4.499,4.5-4.499C96.986,2.069,99,4.083,99,6.568z M97.5,6.568
		c0-1.652-1.346-3-2.998-3s-3,1.347-3,3c0,1.653,1.348,2.999,3,2.999S97.5,8.221,97.5,6.568z"/>
</g>
<g>
	<path fill="#FFFFFF" d="M99.52,42.369c0,2.485-2.188,4.499-4.889,4.499c-0.967,0-1.857-0.25-2.611-0.694l-3.682,3.402
		c-0.213,0.194-0.498,0.292-0.771,0.292c-0.282,0-0.559-0.097-0.77-0.292c-0.422-0.389-0.422-1.028,0-1.417l3.697-3.388
		c-0.482-0.694-0.754-1.513-0.754-2.402c0-2.486,2.188-4.499,4.889-4.499C97.332,37.87,99.52,39.883,99.52,42.369z M97.891,42.369
		c0-1.652-1.463-3-3.26-3c-1.795,0-3.26,1.347-3.26,3c0,1.653,1.465,2.999,3.26,2.999C96.428,45.368,97.891,44.021,97.891,42.369z"
		/>
</g>
<g>
	<path fill="#E6E6E6" d="M41.32,164.009c-1.704,0-2.822-1.172-2.822-2.636c0-1.491,1.145-2.637,2.902-2.637
		c1.73,0,2.822,1.146,2.849,2.637c0,1.464-1.118,2.636-2.902,2.636H41.32z M43.771,166.406v14.857h-4.793v-14.857H43.771z
		 M51.438,172.636c0-1.917,1.228-2.876,2.662-2.876c1.438,0,2.608,0.959,2.608,3.355v8.146h4.793v-8.627
		c0-4.312-2.396-6.71-5.752-6.71c-1.915,0-3.353,1.092-4.312,2.529l-0.16-2.05h-4.713c0,0.506,0.08,3.354,0.08,3.354v11.503h4.793
		V172.636L51.438,172.636z"/>
</g>
<g>
	<path fill="#E6E6E6" d="M59.159,210.313c0,0.213,0,0.399,0,0.612c0,6.23-4.739,13.42-13.42,13.42c-2.662,0-5.165-0.586-7.242-1.917
		c0.373,0.054,0.745,0.08,1.118,0.08c2.21,0,4.261-0.959,5.858-2.237c-2.051-0.026-3.808-1.411-4.394-3.274
		c0.293,0.053,0.586,0.08,0.879,0.08c0.426,0,0.852-0.054,1.251-0.16c-2.156-0.426-3.781-2.343-3.781-4.633c0-0.026,0-0.026,0-0.054
		c0.64,0.347,1.358,0.56,2.131,0.586c-1.278-0.852-2.104-2.29-2.104-3.914c0-0.879,0.239-1.598,0.639-2.29
		c2.343,2.85,5.805,4.633,9.719,4.847c-0.08-0.347-0.106-0.72-0.106-1.092c0-2.609,2.104-4.713,4.713-4.713
		c1.357,0,2.583,0.585,3.461,1.49c1.064-0.213,2.077-0.612,2.982-1.145c-0.346,1.092-1.092,2.023-2.077,2.609
		c0.959-0.106,1.864-0.373,2.717-0.745C60.863,208.822,60.064,209.647,59.159,210.313z"/>
</g>
<g>
	<path fill="#E6E6E6" d="M51.678,257.125h4.312v4.312h-4.312V271.5h-4.314v-10.062H44.01v-4.312h3.354v-2.876
		c0-3.169,2.37-5.752,5.273-5.752h3.354v4.313h-3.354c-0.533,0-0.959,0.64-0.959,1.438V257.125L51.678,257.125z"/>
</g>
<g>
	<polygon fill="#D1D3D4" points="81.064,321.289 81.055,319.486 78.121,319.486 78.121,321.997 77.552,321.997 77.552,318.229 
		75.495,318.229 75.495,323.161 74.618,323.161 74.618,324.605 81.064,324.605 	"/>
	<polygon fill="#D1D3D4" points="83.518,323.672 83.518,321.746 81.948,321.746 81.948,324.605 85.77,324.605 85.77,323.672 	"/>
	<rect x="74.618" y="325.654" fill="#D1D3D4" width="11.192" height="1.346"/>
	<rect x="46.567" y="323.688" fill="#D1D3D4" width="5.508" height="3.283"/>
	<rect x="46.567" y="321.266" fill="#D1D3D4" width="5.508" height="1.182"/>
	<rect x="46.958" y="318.932" fill="#D1D3D4" width="4.726" height="1.186"/>
	<path fill="#D1D3D4" d="M51.15,305.494h-0.215v-1.526H50.88v-0.018h-0.373c0,0,0-0.669,0-0.8c0-0.133-0.094-0.379-0.094-0.379H50.5
		v-0.162h-0.218c0,0,0.017-0.051-0.053-0.189c-0.038-0.077-0.186-0.216-0.313-0.328h-1.201c-0.124,0.112-0.271,0.251-0.309,0.328
		c-0.072,0.141-0.057,0.189-0.057,0.189h-0.215v0.162h0.085c0,0-0.095,0.246-0.095,0.379c0,0.131,0,0.8,0,0.8h-0.371v0.018H47.7
		v1.526h-0.217v3.076h3.667V305.494z"/>
	<polygon fill="#D1D3D4" points="49.673,300.152 49.368,297.001 49.324,297 49.315,297 49.312,297 49.263,297.001 48.961,300.152 
		48.938,300.982 49.697,300.982 	"/>
	<polygon fill="#D1D3D4" points="51.15,316.611 51.15,309.951 47.483,309.951 47.483,316.85 51.152,316.85 51.152,316.611 	"/>
	<rect x="22.022" y="318.432" fill="#D1D3D4" width="2.828" height="2.109"/>
	<rect x="18.585" y="319.598" fill="#D1D3D4" width="2.771" height="0.943"/>
	<polygon fill="#D1D3D4" points="17.631,322.618 17.628,322.618 17.628,322.495 15.685,322.495 15.685,324.209 14.189,324.209 
		14.189,324.682 17.631,324.682 	"/>
	<polygon fill="#D1D3D4" points="22.022,322.521 21.355,322.521 21.355,321.785 18.585,321.785 18.585,324.682 24.851,324.682 
		24.851,321.785 22.022,321.785 	"/>
	<rect x="14.189" y="325.6" fill="#D1D3D4" width="10.661" height="1.363"/>
	<rect x="69.241" y="314.957" fill="#D1D3D4" width="4.209" height="0.854"/>
	<rect x="69.241" y="316.807" fill="#D1D3D4" width="4.209" height="0.854"/>
	<rect x="69.241" y="322.659" fill="#D1D3D4" width="4.209" height="4.327"/>
	<rect x="69.241" y="319.165" fill="#D1D3D4" width="4.209" height="2.644"/>
	<polygon fill="#D1D3D4" points="73.45,312.463 73.773,312.463 73.773,312.117 73.45,312.117 73.45,311.8 69.241,311.8 
		69.241,312.117 68.919,312.117 68.919,312.463 69.241,312.463 69.241,313.648 73.45,313.648 	"/>
	<polygon fill="#D1D3D4" points="28.879,311.691 28.589,311.691 28.589,310.547 28.097,310.547 28.097,311.691 27.802,311.691 
		27.802,312.273 28.879,312.273 	"/>
	<polygon fill="#D1D3D4" points="27.528,313.677 27.134,313.677 27.134,314.762 29.549,314.762 29.549,313.677 29.159,313.677 
		29.159,312.898 27.528,312.898 	"/>
	<rect x="26.623" y="316.189" fill="#D1D3D4" width="3.438" height="4.403"/>
	<polygon fill="#D1D3D4" points="26.623,325.786 26.16,325.786 26.16,326.963 30.527,326.963 30.527,325.786 30.062,325.786 
		30.062,322.479 26.623,322.479 	"/>
	<g>
		<rect x="38.024" y="324.116" fill="#D1D3D4" width="6.93" height="1.089"/>
		<polygon fill="#D1D3D4" points="38.978,319.484 38.024,319.484 38.024,322.695 44.954,322.695 44.954,321.559 44.807,321.559 
			44.807,319.173 38.978,319.173 		"/>
		<polygon fill="#D1D3D4" points="41.611,315.066 38.978,315.066 38.978,318.08 44.807,318.08 44.807,313.852 41.611,313.852 		"/>
		<rect x="41.611" y="309.969" fill="#D1D3D4" width="3.195" height="2.518"/>
		<rect x="38.024" y="326.158" fill="#D1D3D4" width="6.93" height="0.805"/>
	</g>
	<g>
		<polygon fill="#D1D3D4" points="31.919,319.555 36.434,319.555 36.434,318.852 36.426,318.852 36.426,318.807 31.919,318.807 		
			"/>
		<polygon fill="#D1D3D4" points="31.919,311.323 36.136,311.323 34.538,309.898 31.919,309.898 		"/>
		<polygon fill="#D1D3D4" points="32.072,307.698 31.919,307.698 31.919,308.766 33.267,308.766 		"/>
		<rect x="31.919" y="320.84" fill="#D1D3D4" width="4.515" height="1.665"/>
		<rect x="31.919" y="323.752" fill="#D1D3D4" width="4.515" height="3.211"/>
		<polygon fill="#D1D3D4" points="31.919,317.955 36.426,317.955 36.426,314.177 36.426,313.283 31.919,313.283 		"/>
	</g>
	<rect x="62.354" y="312.505" fill="#D1D3D4" width="3.269" height="1.208"/>
	<rect x="62.354" y="314.878" fill="#D1D3D4" width="5.537" height="2.376"/>
	<rect x="62.354" y="318.589" fill="#D1D3D4" width="5.537" height="3.987"/>
	<rect x="62.354" y="324.32" fill="#D1D3D4" width="5.537" height="2.66"/>
	<rect x="53.543" y="322.732" fill="#D1D3D4" width="7.469" height="0.931"/>
	<polygon fill="#D1D3D4" points="61.012,316.824 57.587,316.824 57.587,317.482 56.629,317.482 56.629,316.824 53.543,316.824 
		53.543,320.95 61.012,320.95 	"/>
	<rect x="53.543" y="324.984" fill="#D1D3D4" width="7.469" height="2"/>
	<rect x="57.587" y="309.35" fill="#D1D3D4" width="3.425" height="6.049"/>
	<rect x="53.543" y="311.277" fill="#D1D3D4" width="3.086" height="4.119"/>
</g>
<g>
	<path fill="#F98159" d="M59.014,350.102v-1.473c0-1.449-0.914-2.316-2.447-2.316c-1.531,0-2.445,0.867-2.445,2.316v1.473h-1.658
		v-1.473c0-1.449-0.914-2.316-2.447-2.316c-1.532,0-2.447,0.867-2.447,2.316v1.473H45.91v-1.473c0-1.449-0.915-2.316-2.447-2.316
		c-1.532,0-2.447,0.867-2.447,2.316v1.473h-2.809v23.586h23.586v-23.586H59.014z M55.43,348.629c0-0.715,0.328-1.006,1.137-1.006
		c0.81,0,1.138,0.291,1.138,1.006v3.938c0,0.716-0.328,1.007-1.138,1.007c-0.809,0-1.137-0.291-1.137-1.007V348.629z
		 M48.878,348.629c0-0.715,0.328-1.006,1.136-1.006s1.136,0.291,1.136,1.006v3.938c0,0.716-0.328,1.007-1.136,1.007
		c-0.809,0-1.136-0.291-1.136-1.007V348.629z M42.327,348.629c0-0.715,0.328-1.006,1.136-1.006c0.809,0,1.137,0.291,1.137,1.006
		v3.938c0,0.716-0.328,1.007-1.137,1.007s-1.136-0.291-1.136-1.007V348.629z M59.827,371.723H40.172v-16.381h19.655V371.723z"/>
	<rect x="41.947" y="358.111" fill="#F98159" width="3.121" height="3.121"/>
	<rect x="46.272" y="358.111" fill="#F98159" width="3.121" height="3.121"/>
	<rect x="50.598" y="358.111" fill="#F98159" width="3.123" height="3.121"/>
	<rect x="41.954" y="362.396" fill="#F98159" width="3.12" height="3.121"/>
	<rect x="46.279" y="362.396" fill="#F98159" width="3.121" height="3.121"/>
	<rect x="50.604" y="362.396" fill="#F98159" width="3.123" height="3.121"/>
	<rect x="41.95" y="366.383" fill="#F98159" width="3.122" height="3.121"/>
	<rect x="46.275" y="366.383" fill="#F98159" width="3.122" height="3.121"/>
	<rect x="50.602" y="366.383" fill="#F98159" width="3.123" height="3.121"/>
	<rect x="54.924" y="358.111" fill="#F98159" width="3.122" height="3.121"/>
	<rect x="54.932" y="362.396" fill="#F98159" width="3.121" height="3.121"/>
	<rect x="54.928" y="366.383" fill="#F98159" width="3.122" height="3.121"/>
</g>
<g>
	<path fill="#FFFFFF" d="M59.014,390.102v-1.473c0-1.449-0.914-2.316-2.447-2.316c-1.531,0-2.445,0.867-2.445,2.316v1.473h-1.658
		v-1.473c0-1.449-0.914-2.316-2.447-2.316c-1.532,0-2.447,0.867-2.447,2.316v1.473H45.91v-1.473c0-1.449-0.915-2.316-2.447-2.316
		c-1.532,0-2.447,0.867-2.447,2.316v1.473h-2.809v23.586h23.586v-23.586H59.014z M55.43,388.629c0-0.715,0.328-1.006,1.137-1.006
		c0.81,0,1.138,0.291,1.138,1.006v3.938c0,0.716-0.328,1.007-1.138,1.007c-0.809,0-1.137-0.291-1.137-1.007V388.629z
		 M48.878,388.629c0-0.715,0.328-1.006,1.136-1.006s1.136,0.291,1.136,1.006v3.938c0,0.716-0.328,1.007-1.136,1.007
		c-0.809,0-1.136-0.291-1.136-1.007V388.629z M42.327,388.629c0-0.715,0.328-1.006,1.136-1.006c0.809,0,1.137,0.291,1.137,1.006
		v3.938c0,0.716-0.328,1.007-1.137,1.007s-1.136-0.291-1.136-1.007V388.629z M59.827,411.723H40.172v-16.381h19.655V411.723z"/>
	<rect x="41.947" y="398.111" fill="#FFFFFF" width="3.121" height="3.121"/>
	<rect x="46.272" y="398.111" fill="#FFFFFF" width="3.121" height="3.121"/>
	<rect x="50.598" y="398.111" fill="#FFFFFF" width="3.123" height="3.121"/>
	<rect x="41.954" y="402.396" fill="#FFFFFF" width="3.12" height="3.12"/>
	<rect x="46.279" y="402.396" fill="#FFFFFF" width="3.121" height="3.12"/>
	<rect x="50.604" y="402.396" fill="#FFFFFF" width="3.123" height="3.12"/>
	<rect x="41.95" y="406.383" fill="#FFFFFF" width="3.122" height="3.121"/>
	<rect x="46.275" y="406.383" fill="#FFFFFF" width="3.122" height="3.121"/>
	<rect x="50.602" y="406.383" fill="#FFFFFF" width="3.123" height="3.121"/>
	<rect x="54.924" y="398.111" fill="#FFFFFF" width="3.122" height="3.121"/>
	<rect x="54.932" y="402.396" fill="#FFFFFF" width="3.121" height="3.12"/>
	<rect x="54.928" y="406.383" fill="#FFFFFF" width="3.122" height="3.121"/>
</g>
<g>
	<polygon fill="#FFFFFF" points="58.384,451.616 54.268,447.5 52.5,449.268 56.616,453.384 55,455 60,455 60,450 	"/>
	<polygon fill="#FFFFFF" points="56.616,436.616 52.5,440.732 54.268,442.5 58.384,438.384 60,440 60,435 55,435 	"/>
	<polygon fill="#FFFFFF" points="41.616,438.384 45.732,442.5 47.5,440.732 43.384,436.616 45,435 40,435 40,440 	"/>
	<polygon fill="#FFFFFF" points="47.5,449.268 45.732,447.5 41.616,451.616 40,450 40,455 45,455 43.384,453.384 	"/>
</g>
</svg>
