<?xml version="1.0" encoding="utf-8"?>
<!-- Generator: Adobe Illustrator 16.2.1, SVG Export Plug-In . SVG Version: 6.00 Build 0)  -->
<!DOCTYPE svg PUBLIC "-//W3C//DTD SVG 1.1//EN" "http://www.w3.org/Graphics/SVG/1.1/DTD/svg11.dtd">
<svg version="1.1" id="Layer_1" xmlns="http://www.w3.org/2000/svg" xmlns:xlink="http://www.w3.org/1999/xlink" x="0px" y="0px"
	 width="755px" height="415px" viewBox="0 0 755 415" enable-background="new 0 0 755 415" xml:space="preserve">
<rect x="677.371" y="345.996" fill="#7FC0DA" width="77.463" height="68.652"/>
<rect x="677.371" y="295.334" fill="#003059" width="77.463" height="24.699"/>
<rect x="685.484" y="246.537" fill="#003059" width="69.35" height="24.758"/>
<rect x="696.522" fill="#256EB1" width="58.312" height="29.828"/>
<rect x="696.522" y="58.723" fill="#7FC0DA" width="58.312" height="144.279"/>
<rect x="163.996" y="236.074" fill="#9FD1E9" width="59.16" height="44.121"/>
<rect x="92.089" y="260.459" fill="#9FD1E9" width="57.947" height="19.736"/>
<polygon fill="#256EB1" points="72.13,323.629 72.063,323.629 72.063,321.053 31.474,321.053 31.474,356.891 0.167,356.891 
	0.167,366.783 72.13,366.783 "/>
<polygon fill="#256EB1" points="163.996,321.623 150.037,321.623 150.037,306.217 92.089,306.217 92.089,366.783 223.156,366.783 
	223.156,306.217 163.996,306.217 "/>
<rect x="0.167" y="385.98" fill="#003059" width="222.989" height="28.502"/>
<polygon fill="#BC202F" points="307.417,95.102 301.347,95.102 301.347,71.17 291.035,71.17 291.035,95.102 284.875,95.102 
	284.875,107.293 307.417,107.293 "/>
<polygon fill="#7F1418" points="321.409,136.631 313.232,136.631 313.232,120.361 279.125,120.361 279.125,136.631 270.908,136.631 
	270.908,159.311 321.409,159.311 "/>
<rect x="260.222" y="189.193" fill="#E03426" width="71.898" height="92.131"/>
<polygon fill="#BC202F" points="332.121,320.693 260.222,320.693 260.222,389.896 250.525,389.896 250.525,414.482 341.867,414.482 
	341.867,389.896 332.121,389.896 "/>
<rect x="498.664" y="354.982" fill="#F39121" width="144.934" height="22.752"/>
<polygon fill="#F18E21" points="640.522,251.57 518.596,251.57 518.596,258.113 498.664,258.113 498.664,325.26 643.597,325.26 
	643.597,301.488 640.522,301.488 "/>
<polygon fill="#FFE271" points="640.522,140.27 573.671,140.27 573.671,165.701 518.596,165.701 518.596,228.734 640.522,228.734 
	"/>
<rect x="573.671" y="59.08" fill="#F5AB1C" width="66.851" height="52.609"/>
<rect x="498.664" y="397.68" fill="#FDE03A" width="144.934" height="16.803"/>
<polygon fill="#049146" points="465.243,243.904 371.006,243.904 371.006,259.535 465.388,259.535 465.388,244.859 465.243,244.859 
	"/>
<polygon fill="#084623" points="425.738,57.594 371.006,57.594 371.006,87.412 459.151,87.412 "/>
<polygon fill="#084623" points="374.193,11.6 371.006,11.6 371.006,33.918 399.207,33.918 "/>
<rect x="371.006" y="286.426" fill="#049146" width="94.382" height="34.854"/>
<rect x="371.006" y="347.363" fill="#74B74A" width="94.382" height="67.119"/>
<polygon fill="#75B349" points="465.243,147.094 465.243,128.402 371.006,128.402 371.006,226.1 465.243,226.1 "/>
<g>
</g>
<g>
</g>
<g>
</g>
<g>
</g>
<g>
</g>
<g>
</g>
</svg>
