<?xml version="1.0" encoding="utf-8"?>
<!-- Generator: Adobe Illustrator 16.2.1, SVG Export Plug-In . SVG Version: 6.00 Build 0)  -->
<!DOCTYPE svg PUBLIC "-//W3C//DTD SVG 1.1//EN" "http://www.w3.org/Graphics/SVG/1.1/DTD/svg11.dtd">
<svg version="1.1" id="Layer_1" xmlns="http://www.w3.org/2000/svg" xmlns:xlink="http://www.w3.org/1999/xlink" x="0px" y="0px"
	 width="300px" height="120px" viewBox="0 0 300 120" enable-background="new 0 0 300 120" xml:space="preserve">
<g opacity="0.25">
	<polygon fill="#B9AF99" points="263.26,93.396 263.223,86.828 252.524,86.828 252.524,95.979 250.449,95.979 250.449,82.236 
		242.951,82.236 242.951,100.224 239.761,100.224 239.761,105.492 263.26,105.492 	"/>
	<polygon fill="#B9AF99" points="272.203,102.084 272.203,95.062 266.479,95.062 266.479,105.492 280.412,105.492 280.412,102.084 	
		"/>
	<rect x="239.761" y="109.311" fill="#5B4C43" width="40.797" height="4.908"/>
	<rect x="137.492" y="102.141" fill="#80C4DE" width="20.074" height="11.969"/>
	<rect x="137.492" y="93.309" fill="#163258" width="20.074" height="4.307"/>
	<rect x="138.911" y="84.803" fill="#163258" width="17.23" height="4.316"/>
	<path fill="#256EB6" d="M154.199,35.812h-0.783v-5.566h-0.201v-0.062h-1.363c0,0,0-2.438,0-2.91c0-0.487-0.339-1.389-0.339-1.389
		h0.313v-0.59h-0.792c0,0,0.06-0.18-0.19-0.69c-0.139-0.283-0.682-0.788-1.143-1.196h-4.379c-0.454,0.408-0.99,0.913-1.128,1.196
		c-0.264,0.511-0.205,0.69-0.205,0.69h-0.786v0.59h0.309c0,0-0.342,0.901-0.342,1.389c0,0.472,0,2.91,0,2.91h-1.354v0.062h-0.199
		v5.566h-0.786v11.214h13.368V35.812z"/>
	<polygon fill="#5375AA" points="148.81,16.34 147.699,4.848 147.537,4.844 147.51,4.844 147.496,4.844 147.314,4.848 
		146.212,16.34 146.125,19.369 148.897,19.369 	"/>
	<polygon fill="#80C4DE" points="154.199,76.344 154.199,52.062 140.831,52.062 140.831,77.215 154.209,77.215 154.209,76.344 	"/>
	<rect x="48.002" y="82.979" fill="#A3D5ED" width="10.311" height="7.69"/>
	<rect x="35.464" y="87.229" fill="#A3D5ED" width="10.104" height="3.441"/>
	<polygon fill="#256EB6" points="31.986,98.241 31.975,98.241 31.975,97.793 24.897,97.793 24.897,104.042 19.442,104.042 
		19.442,105.764 31.986,105.764 	"/>
	<polygon fill="#256EB6" points="48.002,97.891 45.568,97.891 45.568,95.206 35.464,95.206 35.464,105.764 58.312,105.764 
		58.312,95.206 48.002,95.206 	"/>
	<rect x="19.442" y="109.113" fill="#163258" width="38.87" height="4.968"/>
	<rect x="220.151" y="70.312" fill="#DD4227" width="15.347" height="3.11"/>
	<rect x="220.151" y="77.051" fill="#DD4227" width="15.347" height="3.119"/>
	<rect x="220.151" y="98.391" fill="#CC5728" width="15.347" height="15.778"/>
	<rect x="220.151" y="85.654" fill="#F37239" width="15.347" height="9.638"/>
	<polygon fill="#E78427" points="235.498,61.22 236.675,61.22 236.675,59.957 235.498,59.957 235.498,58.804 220.151,58.804 
		220.151,59.957 218.979,59.957 218.979,61.22 220.151,61.22 220.151,65.545 235.498,65.545 	"/>
	<polygon fill="#BF202E" points="72.999,58.404 71.942,58.404 71.942,54.233 70.146,54.233 70.146,58.404 69.074,58.404 
		69.074,60.529 72.999,60.529 	"/>
	<polygon fill="#7F1418" points="68.071,65.645 66.639,65.645 66.639,69.599 75.441,69.599 75.441,65.645 74.016,65.645 
		74.016,62.808 68.071,62.808 	"/>
	<rect x="64.773" y="74.809" fill="#E33227" width="12.535" height="16.06"/>
	<polygon fill="#BF202E" points="64.773,109.795 63.084,109.795 63.084,114.081 79.004,114.081 79.004,109.795 77.309,109.795 
		77.309,97.729 64.773,97.729 	"/>
	<g>
		<rect x="106.342" y="103.706" fill="#F89622" width="25.264" height="3.969"/>
		<polygon fill="#F69322" points="109.813,86.82 106.342,86.82 106.342,98.526 131.605,98.526 131.605,94.383 131.069,94.383 
			131.069,85.68 109.813,85.68 		"/>
		<polygon fill="#FEE671" points="119.415,70.712 109.813,70.712 109.813,81.7 131.069,81.7 131.069,66.279 119.415,66.279 		"/>
		<rect x="119.415" y="52.124" fill="#FAAF1A" width="11.654" height="9.173"/>
		<rect x="106.342" y="111.15" fill="#FEE438" width="25.264" height="2.931"/>
	</g>
	<g>
		<polygon fill="#019547" points="84.084,87.07 100.539,87.07 100.539,84.512 100.513,84.512 100.513,84.344 84.084,84.344 		"/>
		<polygon fill="#084623" points="84.084,57.064 99.454,57.064 93.629,51.867 84.084,51.867 		"/>
		<polygon fill="#084623" points="84.64,43.848 84.084,43.848 84.084,47.738 89,47.738 		"/>
		<rect x="84.084" y="91.759" fill="#019547" width="16.455" height="6.073"/>
		<rect x="84.084" y="102.381" fill="#74B749" width="16.455" height="11.7"/>
		<polygon fill="#76B749" points="84.084,81.24 100.513,81.24 100.513,67.467 100.513,64.21 84.084,64.21 		"/>
	</g>
	<rect x="195.038" y="61.369" fill="#044F27" width="11.911" height="4.407"/>
	<rect x="195.038" y="70.021" fill="#046938" width="20.186" height="8.666"/>
	<rect x="195.038" y="83.555" fill="#76B749" width="20.186" height="14.536"/>
	<rect x="195.038" y="104.448" fill="#B8D660" width="20.186" height="9.702"/>
	<rect x="162.915" y="98.662" fill="#424143" width="27.231" height="3.39"/>
	<polygon fill="#D2D3D4" points="190.146,77.118 177.666,77.118 177.666,79.518 174.171,79.518 174.171,77.118 162.915,77.118 
		162.915,92.162 190.146,92.162 	"/>
	<rect x="162.915" y="106.87" fill="#818285" width="27.231" height="7.292"/>
	<rect x="177.666" y="49.863" fill="#818285" width="12.48" height="22.055"/>
	<rect x="162.915" y="56.903" fill="#818285" width="11.256" height="15.015"/>
</g>
<g>
</g>
<g>
</g>
<g>
</g>
<g>
</g>
<g>
</g>
<g>
</g>
</svg>
